<?xml version="1.0" encoding="UTF-8" standalone="no"?>
<!-- Created with Inkscape (http://www.inkscape.org/) -->

<svg
   xmlns:dc="http://purl.org/dc/elements/1.1/"
   xmlns:cc="http://creativecommons.org/ns#"
   xmlns:rdf="http://www.w3.org/1999/02/22-rdf-syntax-ns#"
   xmlns:svg="http://www.w3.org/2000/svg"
   xmlns="http://www.w3.org/2000/svg"
   xmlns:sodipodi="http://sodipodi.sourceforge.net/DTD/sodipodi-0.dtd"
   xmlns:inkscape="http://www.inkscape.org/namespaces/inkscape"
   width="176.31337mm"
   height="55.167599mm"
   viewBox="0 0 176.31337 55.167599"
   version="1.1"
   id="svg951"
   inkscape:version="0.92.4 5da689c313, 2019-01-14"
   sodipodi:docname="lecuyerdev-upperbold-dark.svg">
  <defs
     id="defs945" />
  <sodipodi:namedview
     id="base"
     pagecolor="#ffffff"
     bordercolor="#666666"
     borderopacity="1.0"
     inkscape:pageopacity="0.0"
     inkscape:pageshadow="2"
     inkscape:zoom="0.35"
     inkscape:cx="-749.0017"
     inkscape:cy="-155.56742"
     inkscape:document-units="mm"
     inkscape:current-layer="layer1"
     showgrid="false"
     inkscape:window-width="1920"
     inkscape:window-height="1032"
     inkscape:window-x="0"
     inkscape:window-y="24"
     inkscape:window-maximized="1" />
  <metadata
     id="metadata948">
    <rdf:RDF>
      <cc:Work
         rdf:about="">
        <dc:format>image/svg+xml</dc:format>
        <dc:type
           rdf:resource="http://purl.org/dc/dcmitype/StillImage" />
        <dc:title></dc:title>
      </cc:Work>
    </rdf:RDF>
  </metadata>
  <g
     inkscape:label="Layer 1"
     inkscape:groupmode="layer"
     id="layer1"
     transform="translate(-8.429319,-52.505178)">
    <g
       aria-label="LECUYER.DEV"
       transform="matrix(0.26458333,0,0,0.26458333,2.0000007,-17.500011)"
       style="font-style:normal;font-variant:normal;font-weight:bold;font-stretch:normal;font-size:40px;line-height:1.25;font-family:'Futura LT Book';-inkscape-font-specification:'Futura LT Book, Bold';font-variant-ligatures:normal;font-variant-caps:normal;font-variant-numeric:normal;font-feature-settings:normal;text-align:start;letter-spacing:0px;word-spacing:0px;writing-mode:lr-tb;text-anchor:start;fill:#000000;fill-opacity:1;stroke:none"
       id="flowRoot1496">
      <path
         d="m 50.674844,389.09628 h 22.56 v 15.936 h -41.376 v -72.384 h 18.816 z"
         style="font-style:normal;font-variant:normal;font-weight:bold;font-stretch:normal;font-size:96px;font-family:'Futura LT Book';-inkscape-font-specification:'Futura LT Book, Bold';font-variant-ligatures:normal;font-variant-caps:normal;font-variant-numeric:normal;font-feature-settings:normal;text-align:start;writing-mode:lr-tb;text-anchor:start;fill:#0a2c47;fill-opacity:1"
         id="path2285" />
      <path
         d="m 98.194741,348.58428 v 12.096 h 21.215999 v 15.936 H 98.194741 v 12.48 h 22.367999 v 15.936 H 79.378741 v -72.384 h 41.183999 v 15.936 z"
         style="font-style:normal;font-variant:normal;font-weight:bold;font-stretch:normal;font-size:96px;font-family:'Futura LT Book';-inkscape-font-specification:'Futura LT Book, Bold';font-variant-ligatures:normal;font-variant-caps:normal;font-variant-numeric:normal;font-feature-settings:normal;text-align:start;writing-mode:lr-tb;text-anchor:start;fill:#0a2c47;fill-opacity:1"
         id="path2287" />
      <path
         d="m 183.92267,356.93628 q -2.88,-3.936 -7.296,-5.952 -4.32,-2.016 -9.216,-2.016 -4.32,0 -7.872,1.536 -3.552,1.536 -6.144,4.32 -2.496,2.688 -3.936,6.336 -1.344,3.648 -1.344,7.872 0,4.32 1.344,7.968 1.44,3.552 4.032,6.144 2.592,2.592 6.144,4.128 3.648,1.44 8.064,1.44 4.608,0 8.928,-2.016 4.32,-2.112 7.296,-5.664 v 22.56 q -4.704,1.44 -8.448,2.4 -3.744,0.96 -8.16,0.96 -7.584,0 -14.592,-2.688 -6.912,-2.784 -12.576,-7.968 -6.048,-5.472 -8.832,-12.288 -2.784,-6.912 -2.784,-15.072 0,-7.488 2.688,-14.304 2.784,-6.816 7.968,-12.192 5.376,-5.472 12.576,-8.544 7.296,-3.168 14.976,-3.168 4.608,0 8.736,0.96 4.224,0.96 8.448,2.688 z"
         style="font-style:normal;font-variant:normal;font-weight:bold;font-stretch:normal;font-size:96px;font-family:'Futura LT Book';-inkscape-font-specification:'Futura LT Book, Bold';font-variant-ligatures:normal;font-variant-caps:normal;font-variant-numeric:normal;font-feature-settings:normal;text-align:start;writing-mode:lr-tb;text-anchor:start;fill:#0a2c47;fill-opacity:1"
         id="path2289" />
      <path
         d="m 258.32265,332.64828 v 40.704 q 0,3.456 -0.192,6.912 -0.192,3.456 -0.96,6.72 -0.672,3.264 -2.208,6.336 -1.536,2.976 -4.224,5.568 -2.304,2.208 -5.184,3.744 -2.784,1.536 -5.952,2.496 -3.072,0.96 -6.432,1.344 -3.264,0.48 -6.432,0.48 -3.168,0 -6.528,-0.48 -3.264,-0.384 -6.432,-1.344 -3.072,-0.96 -5.952,-2.496 -2.784,-1.536 -5.088,-3.744 -2.688,-2.592 -4.224,-5.568 -1.536,-3.072 -2.304,-6.336 -0.672,-3.264 -0.864,-6.72 -0.192,-3.456 -0.192,-6.912 v -40.704 h 18.816 v 38.112 q 0,3.552 0.288,7.104 0.288,3.456 1.536,6.336 1.248,2.784 3.84,4.512 2.592,1.728 7.104,1.728 4.512,0 7.104,-1.728 2.592,-1.728 3.84,-4.512 1.248,-2.88 1.536,-6.336 0.288,-3.552 0.288,-7.104 v -38.112 z"
         style="font-style:normal;font-variant:normal;font-weight:bold;font-stretch:normal;font-size:96px;font-family:'Futura LT Book';-inkscape-font-specification:'Futura LT Book, Bold';font-variant-ligatures:normal;font-variant-caps:normal;font-variant-numeric:normal;font-feature-settings:normal;text-align:start;writing-mode:lr-tb;text-anchor:start;fill:#0a2c47;fill-opacity:1"
         id="path2291" />
      <path
         d="m 262.25864,332.64828 h 22.56 l 13.536,19.68 13.536,-19.68 h 22.56 l -26.688,37.632 v 34.752 h -18.816 v -34.752 z"
         style="font-style:normal;font-variant:normal;font-weight:bold;font-stretch:normal;font-size:96px;font-family:'Futura LT Book';-inkscape-font-specification:'Futura LT Book, Bold';font-variant-ligatures:normal;font-variant-caps:normal;font-variant-numeric:normal;font-feature-settings:normal;text-align:start;writing-mode:lr-tb;text-anchor:start;fill:#0a2c47;fill-opacity:1"
         id="path2293" />
      <path
         d="m 357.58653,348.58428 v 12.096 h 21.216 v 15.936 h -21.216 v 12.48 h 22.368 v 15.936 h -41.184 v -72.384 h 41.184 v 15.936 z"
         style="font-style:normal;font-variant:normal;font-weight:bold;font-stretch:normal;font-size:96px;font-family:'Futura LT Book';-inkscape-font-specification:'Futura LT Book, Bold';font-variant-ligatures:normal;font-variant-caps:normal;font-variant-numeric:normal;font-feature-settings:normal;text-align:start;writing-mode:lr-tb;text-anchor:start;fill:#0a2c47;fill-opacity:1"
         id="path2295" />
      <path
         d="m 410.38645,365.09628 h 1.824 q 2.304,0 4.608,-0.288 2.304,-0.288 4.128,-1.248 1.92,-0.96 3.072,-2.688 1.248,-1.824 1.248,-4.8 0,-2.976 -1.248,-4.704 -1.152,-1.824 -3.072,-2.784 -1.824,-0.96 -4.128,-1.248 -2.304,-0.288 -4.608,-0.288 h -1.824 z m 41.376,39.936 h -23.424 l -17.76,-27.84 h -0.192 v 27.84 h -18.816 v -72.384 h 28.128 q 5.376,0 9.984,1.344 4.608,1.248 7.968,4.032 3.36,2.688 5.28,6.912 1.92,4.224 1.92,9.984 0,3.744 -1.056,7.2 -0.96,3.36 -2.976,6.144 -2.016,2.688 -4.992,4.608 -2.976,1.824 -6.816,2.496 z"
         style="font-style:normal;font-variant:normal;font-weight:bold;font-stretch:normal;font-size:96px;font-family:'Futura LT Book';-inkscape-font-specification:'Futura LT Book, Bold';font-variant-ligatures:normal;font-variant-caps:normal;font-variant-numeric:normal;font-feature-settings:normal;text-align:start;writing-mode:lr-tb;text-anchor:start;fill:#0a2c47;fill-opacity:1"
         id="path2297" />
      <path
         d="m 467.2183,384.48828 q 2.304,0 4.32,0.864 2.112,0.864 3.648,2.4 1.536,1.536 2.4,3.648 0.864,2.016 0.864,4.32 0,2.304 -0.864,4.416 -0.864,2.016 -2.4,3.552 -1.536,1.44 -3.648,2.304 -2.016,0.96 -4.32,0.96 -2.304,0 -4.416,-0.96 -2.016,-0.864 -3.552,-2.304 -1.536,-1.536 -2.4,-3.552 -0.864,-2.112 -0.864,-4.416 0,-2.304 0.864,-4.32 0.864,-2.112 2.4,-3.648 1.536,-1.536 3.552,-2.4 2.112,-0.864 4.416,-0.864 z"
         style="font-style:normal;font-variant:normal;font-weight:bold;font-stretch:normal;font-size:96px;font-family:'Futura LT Book';-inkscape-font-specification:'Futura LT Book, Bold';font-variant-ligatures:normal;font-variant-caps:normal;font-variant-numeric:normal;font-feature-settings:normal;text-align:start;writing-mode:lr-tb;text-anchor:start;fill:#419d78;fill-opacity:1"
         id="path2299" />
      <path
         d="m 508.59416,389.09628 h 4.224 q 4.224,0 7.968,-1.152 3.84,-1.248 6.624,-3.648 2.88,-2.496 4.512,-6.336 1.728,-3.84 1.728,-9.12 0,-4.896 -1.536,-8.64 -1.536,-3.744 -4.32,-6.336 -2.688,-2.592 -6.528,-3.936 -3.744,-1.344 -8.256,-1.344 h -4.416 z m -18.816,-56.448 h 26.688 q 7.584,0 14.208,2.784 6.72,2.784 11.712,7.68 4.992,4.896 7.872,11.52 2.976,6.624 2.976,14.208 0,7.68 -2.976,14.304 -2.88,6.528 -7.872,11.424 -4.992,4.896 -11.712,7.68 -6.72,2.784 -14.208,2.784 h -26.688 z"
         style="font-style:normal;font-variant:normal;font-weight:bold;font-stretch:normal;font-size:96px;font-family:'Futura LT Book';-inkscape-font-specification:'Futura LT Book, Bold';font-variant-ligatures:normal;font-variant-caps:normal;font-variant-numeric:normal;font-feature-settings:normal;text-align:start;writing-mode:lr-tb;text-anchor:start;fill:#0a2c47;fill-opacity:1"
         id="path2301" />
      <path
         d="m 580.78605,348.58428 v 12.096 h 21.216 v 15.936 h -21.216 v 12.48 h 22.368 v 15.936 h -41.184 v -72.384 h 41.184 v 15.936 z"
         style="font-style:normal;font-variant:normal;font-weight:bold;font-stretch:normal;font-size:96px;font-family:'Futura LT Book';-inkscape-font-specification:'Futura LT Book, Bold';font-variant-ligatures:normal;font-variant-caps:normal;font-variant-numeric:normal;font-feature-settings:normal;text-align:start;writing-mode:lr-tb;text-anchor:start;fill:#0a2c47;fill-opacity:1"
         id="path2303" />
      <path
         d="m 645.10598,376.61628 17.568,-43.968 h 20.448 l -30.912,72.384 h -14.592 l -30.432,-72.384 h 20.448 z"
         style="font-style:normal;font-variant:normal;font-weight:bold;font-stretch:normal;font-size:96px;font-family:'Futura LT Book';-inkscape-font-specification:'Futura LT Book, Bold';font-variant-ligatures:normal;font-variant-caps:normal;font-variant-numeric:normal;font-feature-settings:normal;text-align:start;writing-mode:lr-tb;text-anchor:start;fill:#0a2c47;fill-opacity:1"
         id="path2305" />
    </g>
  </g>
</svg>
